<svg width="64" height="64" viewBox="0 0 64 64" fill="none" xmlns="http://www.w3.org/2000/svg">
<path d="M44.0234 35.0234V26.0234H36.3594L39.5234 30.2422L37.0625 32C34.0625 27.9219 32.375 25.625 32 25.1094C31.625 25.625 29.9375 27.9219 26.9375 32L24.4766 30.2422L27.6406 26.0234H19.9766V35.0234H44.0234ZM44.0234 42.4766V39.5234H19.9766V42.4766H44.0234ZM28.5547 20.4688C28.2734 20.1406 27.9219 19.9766 27.5 19.9766C27.0781 19.9766 26.7266 20.1406 26.4453 20.4688C26.1641 20.75 26.0234 21.1016 26.0234 21.5234C26.0234 21.9453 26.1641 22.2969 26.4453 22.5781C26.7266 22.8594 27.0781 23 27.5 23C27.9219 23 28.2734 22.8594 28.5547 22.5781C28.8359 22.2969 28.9766 21.9453 28.9766 21.5234C28.9766 21.1016 28.8359 20.75 28.5547 20.4688ZM37.5547 20.4688C37.2734 20.1406 36.9219 19.9766 36.5 19.9766C36.0781 19.9766 35.7266 20.1406 35.4453 20.4688C35.1641 20.75 35.0234 21.1016 35.0234 21.5234C35.0234 21.9453 35.1641 22.2969 35.4453 22.5781C35.7266 22.8594 36.0781 23 36.5 23C36.9219 23 37.2734 22.8594 37.5547 22.5781C37.8359 22.2969 37.9766 21.9453 37.9766 21.5234C37.9766 21.1016 37.8359 20.75 37.5547 20.4688ZM44.0234 23C44.8672 23 45.5703 23.3047 46.1328 23.9141C46.6953 24.4766 46.9766 25.1797 46.9766 26.0234V42.4766C46.9766 43.3203 46.6953 44.0469 46.1328 44.6562C45.5703 45.2188 44.8672 45.5 44.0234 45.5H19.9766C19.1328 45.5 18.4297 45.2188 17.8672 44.6562C17.3047 44.0469 17.0234 43.3203 17.0234 42.4766V26.0234C17.0234 25.1797 17.3047 24.4766 17.8672 23.9141C18.4297 23.3047 19.1328 23 19.9766 23H23.2812C23.0938 22.3438 23 21.8516 23 21.5234C23 20.3047 23.4453 19.25 24.3359 18.3594C25.2266 17.4688 26.2812 17.0234 27.5 17.0234C29.0469 17.0234 30.2891 17.6797 31.2266 18.9922L32 20.0469L32.7734 18.9922C33.1016 18.4297 33.6406 17.9609 34.3906 17.5859C35.1406 17.2109 35.8438 17.0234 36.5 17.0234C37.7188 17.0234 38.7734 17.4688 39.6641 18.3594C40.5547 19.25 41 20.3047 41 21.5234C41 21.8516 40.9062 22.3438 40.7188 23H44.0234Z" fill="white"/>
<circle cx="32" cy="32" r="30.5" stroke="white" stroke-width="3"/>
</svg>
