<svg width="35" height="35" viewBox="0 0 35 35" fill="none" xmlns="http://www.w3.org/2000/svg">
<mask id="mask0_12_30" style="mask-type:alpha" maskUnits="userSpaceOnUse" x="0" y="0" width="35" height="35">
<rect width="35" height="35" rx="8" fill="#92D352"/>
</mask>
<g mask="url(#mask0_12_30)">
<rect width="35" height="35" rx="8" fill="#92D352"/>
<rect x="21" y="15" width="7" height="5" fill="#C8E666"/>
<rect x="28" y="15" width="5" height="5" fill="#C8E666"/>
<rect x="28" y="3" width="5" height="12" fill="#C8E666"/>
<rect x="7" y="8" width="7" height="7" fill="#500A67"/>
<rect x="1" width="4" height="15" fill="#C8E667"/>
<rect x="3" y="19" width="4" height="9" fill="#C8E667"/>
<rect x="28" y="27" width="4" height="4" fill="#C8E667"/>
<rect x="27" y="27" width="4" height="4" fill="#C8E667"/>
<rect x="31" y="-3" width="5" height="38" fill="#59A82C"/>
<rect x="32" y="31" width="4" height="32" transform="rotate(90 32 31)" fill="#59A82C"/>
<rect x="4" y="-1" width="14" height="6" fill="#C8E667"/>
<rect x="14" y="17" width="7" height="8" fill="#500A67"/>
<rect x="21" y="8" width="7" height="7" fill="#500A67"/>
<rect x="9" y="20" width="5" height="9" fill="#500A67"/>
<rect x="21" y="20" width="5" height="9" fill="#500A67"/>
</g>
</svg>
